<svg xmlns="http://www.w3.org/2000/svg" xml:space="preserve" width="1500" height="89" data-id="lg_Gt34mx1b4ryZnI3dgn" data-version="1" viewBox="0 0 1500 89"><g data-padding="20"><g transform="translate(10 1.59)scale(.96429)"><rect width="560" height="54.24" x="86.907" y="-382.913" fill="none" rx="0" ry="0" transform="translate(400.5 382.82)"/><path fill="#034620" d="M523.627 42.107v-33.3h5.63l10.69 20.2 10.85-20.2h5.27v33.3h-3.98v-27.59l-10.24 18.05h-3.99l-10.24-18.05v27.59Zm38.3 0 11.84-33.3h4.52l11.83 33.3h-4.03l-3.37-9.68h-13.74l-3.37 9.68Zm19.57-13.17-5.65-16.24-5.67 16.24Zm9.68-16.62v-3.51h26.25v3.51h-11.14v29.79h-3.98v-29.79Zm52.85 10.85V8.807h3.98v33.3h-3.98v-15.42h-17.82v15.42h-3.98v-33.3h3.98v14.36Zm14.29 18.94v-33.3h3.98v33.3Zm10.54 0 11.84-33.3h4.52l11.84 33.3h-4.03l-3.38-9.68h-13.73l-3.38 9.68Zm19.57-13.17-5.64-16.24-5.68 16.24Zm26.93-20.44q3.85 0 8.27 1.34l-1.28 3.63q-4.22-1.22-7.32-1.22-3.47 0-5.87 1.47-2.4 1.46-2.4 3.78 0 1.29.77 2.3.78 1.01 2.04 1.64 1.27.63 2.89 1.25 1.61.62 3.29 1.14 1.67.52 3.29 1.31 1.62.8 2.88 1.75 1.27.95 2.04 2.47.78 1.52.78 3.45 0 1.33-.43 2.66-.42 1.32-1.4 2.62-.99 1.3-2.44 2.29-1.45.98-3.67 1.59-2.21.61-4.93.61t-5-.56q-2.29-.57-5.13-1.69l1.36-3.87q5.86 2.18 9.26 2.18 3.56 0 5.8-1.43t2.24-3.82q0-1.59-1-2.75-.99-1.16-2.57-1.88-1.59-.71-3.51-1.33t-3.83-1.34q-1.91-.71-3.49-1.65t-2.58-2.53q-1-1.6-1-3.75 0-1.92.93-3.68t2.57-3.08q1.64-1.33 4.1-2.11 2.46-.79 5.34-.79m44.67.06q4.54 0 9.04 1.78l-1.21 3.31q-4.55-1.57-7.95-1.57-2.81 0-5.21 1.11-2.41 1.11-3.99 2.98-1.58 1.86-2.47 4.26-.89 2.41-.89 5.03 0 2.72.95 5.17t2.66 4.29 4.25 2.92q2.54 1.07 5.57 1.07 3.61 0 7.52-1.4l1.22 2.95q-4.9 2.11-9.75 2.11-3 0-5.62-.87-2.63-.86-4.59-2.42-1.95-1.56-3.36-3.69-1.41-2.14-2.12-4.7-.72-2.57-.72-5.41 0-4.8 2.01-8.62 2-3.82 5.82-6.06t8.84-2.24m13 33.55v-4.92h4.92v4.92Zm37.3-33.61q3.84 0 8.27 1.34l-1.29 3.63q-4.22-1.22-7.31-1.22-3.47 0-5.87 1.47-2.4 1.46-2.4 3.78 0 1.29.77 2.3t2.04 1.64q1.26.63 2.88 1.25t3.29 1.14q1.68.52 3.3 1.31 1.61.8 2.88 1.75t2.04 2.47.77 3.45q0 1.33-.42 2.66-.42 1.32-1.41 2.62-.98 1.3-2.43 2.29-1.46.98-3.67 1.59-2.22.61-4.94.61-2.71 0-5-.56-2.28-.57-5.12-1.69l1.36-3.87q5.86 2.18 9.26 2.18 3.56 0 5.8-1.43t2.24-3.82q0-1.59-1-2.75t-2.58-1.88q-1.58-.71-3.5-1.33t-3.83-1.34q-1.91-.71-3.5-1.65-1.58-.94-2.57-2.53-1-1.6-1-3.75 0-1.92.93-3.68.92-1.76 2.56-3.08 1.64-1.33 4.1-2.11 2.46-.79 5.35-.79m36.85 33.61h-19.52v-33.3h19.52v3.51h-15.54v10.88h14.25v3.51h-14.25v11.89h15.54Zm30.43-24.16q0 1.66-.4 3.16t-1.24 2.86-2.33 2.36q-1.49.99-3.48 1.46l9.4 14.32h-4.46l-9.02-13.87h-6.45v13.87h-4v-33.3h12.23q.84 0 1.52.04.68.05 1.75.25t1.89.54 1.72 1.03 1.5 1.63.98 2.39q.39 1.45.39 3.26m-17.98-5.65v12.42h5.75q1.19 0 2.11-.08.91-.08 2.14-.45 1.23-.36 2.04-1 .81-.65 1.38-1.88.58-1.23.58-2.92 0-1.19-.31-2.15-.3-.97-.77-1.59t-1.15-1.07q-.68-.46-1.31-.7-.64-.23-1.41-.37t-1.28-.18q-.5-.03-1.06-.03Zm35.66 29.81-11.6-33.3h4.74l9.51 29.08 9.52-29.08h4.38l-11.6 33.3Zm23.34 0v-33.3h3.99v33.3Zm30.61-33.55q4.55 0 9.05 1.78l-1.22 3.31q-4.55-1.57-7.95-1.57-2.81 0-5.21 1.11t-3.99 2.98q-1.58 1.86-2.47 4.26-.89 2.41-.89 5.03 0 2.72.95 5.17t2.66 4.29 4.25 2.92q2.55 1.07 5.57 1.07 3.61 0 7.52-1.4l1.22 2.95q-4.89 2.11-9.75 2.11-3 0-5.62-.87-2.63-.86-4.58-2.42-1.96-1.56-3.37-3.69-1.4-2.14-2.12-4.7-.71-2.57-.71-5.41 0-4.8 2-8.62 2.01-3.82 5.83-6.06t8.83-2.24m35.12 33.55h-19.53v-33.3h19.53v3.51h-15.54v10.88h14.25v3.51h-14.25v11.89h15.54Zm20.87-33.61q3.84 0 8.27 1.34l-1.29 3.63q-4.22-1.22-7.31-1.22-3.47 0-5.87 1.47-2.4 1.46-2.4 3.78 0 1.29.77 2.3t2.04 1.64q1.26.63 2.88 1.25t3.29 1.14q1.68.52 3.3 1.31 1.62.8 2.88 1.75 1.27.95 2.04 2.47t.77 3.45q0 1.33-.42 2.66-.42 1.32-1.4 2.62-.99 1.3-2.44 2.29-1.46.98-3.67 1.59-2.22.61-4.93.61-2.72 0-5.01-.56-2.28-.57-5.12-1.69l1.36-3.87q5.86 2.18 9.26 2.18 3.56 0 5.8-1.43t2.24-3.82q0-1.59-1-2.75-.99-1.16-2.58-1.88-1.58-.71-3.5-1.33t-3.83-1.34q-1.91-.71-3.5-1.65-1.58-.94-2.57-2.53-1-1.6-1-3.75 0-1.92.93-3.68.92-1.76 2.56-3.08 1.64-1.33 4.1-2.11 2.47-.79 5.35-.79"/><rect width="237.554" height="28.25" x="248.13" y="-369.918" fill="none" rx="0" ry="0" transform="translate(400.5 430.76)"/><path fill="#034620" d="M718.177 64.817h1.95l-3 18h-2.55l-3.18-13.4-3.27 13.4h-2.73l-3-18h2.18l2.37 15.77 3.18-13.45h2.72l2.98 13.4Zm12.82 8.02v1.65h-5.87v6.63h6.62v1.7h-8.75v-18h8.75v1.7h-6.62v6.32Zm4.5-8.02h4.48q2.8 0 4.11 1.17 1.31 1.18 1.31 3.25 0 .7-.21 1.34t-.6 1.16q-.39.53-.93.92-.53.38-1.16.56.68.1 1.35.4.68.3 1.2.84.53.53.85 1.33.33.8.33 1.93 0 1.37-.52 2.35-.51.97-1.36 1.59-.85.61-1.94.88-1.08.28-2.23.28h-4.68Zm4.53 9.22h-2.4v7.15h2.5q.75 0 1.43-.17.69-.18 1.24-.59t.88-1.07q.32-.67.32-1.64 0-1.8-1-2.74t-2.97-.94m-.1-7.75h-2.3v6.23h2.3q1.72 0 2.53-.85.82-.85.82-2.35 0-1.6-.92-2.31-.91-.72-2.43-.72m17.3-1.47h3.2q1.77 0 3.26.41t2.55 1.44q1.06 1.02 1.66 2.76t.6 4.39q0 2.57-.59 4.3-.58 1.72-1.66 2.77-1.07 1.05-2.55 1.49-1.47.44-3.22.44h-3.25Zm3.17 1.57h-1.05v14.78h1.1q1.53 0 2.64-.39t1.84-1.26q.72-.88 1.07-2.28t.35-3.42q0-3.88-1.42-5.65-1.43-1.78-4.53-1.78m20.1 6.45v1.65h-5.87v6.63h6.62v1.7h-8.75v-18h8.75v1.7h-6.62v6.32Zm9.36-6.75q-1.4 0-2.3.67-.9.66-.9 2.08 0 .65.18 1.15.17.5.58.9.42.4 1.09.77.68.36 1.68.73.97.38 1.85.83.87.45 1.53 1.1.67.65 1.05 1.57.39.93.39 2.25 0 1.03-.41 1.95-.41.93-1.15 1.62-.74.68-1.76 1.08-1.03.4-2.25.4-1.25 0-2.19-.31t-1.61-.82q-.68-.52-1.12-1.17-.43-.65-.68-1.35l1.8-.67q.17.5.46.97.29.48.74.84t1.08.59q.64.22 1.54.22.6 0 1.2-.16t1.09-.54q.49-.37.79-1 .3-.62.3-1.52 0-.95-.24-1.58-.24-.62-.75-1.1-.51-.47-1.34-.85-.82-.37-1.97-.85-2.03-.82-2.99-2-.96-1.17-.96-2.9 0-.95.35-1.78.35-.84 1.02-1.45.68-.62 1.64-.97t2.21-.35q2.13 0 3.33.87 1.2.86 1.85 2.33l-1.85.65q-.43-1.05-1.18-1.62-.75-.58-2.1-.58m8.84-1.27h2.13v18h-2.13Zm17.41 8.08v9.93h-1.65l-.12-1.13q-.68.78-1.59 1.13t-1.91.35q-1.25 0-2.34-.48-1.09-.47-1.9-1.56t-1.29-2.89q-.47-1.8-.47-4.45 0-2.67.53-4.47.54-1.8 1.44-2.89t2.06-1.55q1.17-.46 2.42-.46 1.85 0 3 .74 1.15.73 1.8 2.08l-1.8.83q-.43-.95-1.1-1.49-.68-.54-1.83-.54-.97 0-1.79.43-.81.42-1.37 1.35-.56.92-.88 2.4-.31 1.47-.31 3.57 0 2.23.29 3.7.29 1.48.84 2.38t1.3 1.27q.75.38 1.7.38 2.07 0 3.07-1.5v-5.43h-3.07v-1.7Zm12.83-8.08h1.87v18h-2.75l-5.85-15.2v15.2h-1.92v-18h2.82l5.83 14.97Z"/></g><path fill="transparent" stroke="transparent" d="M470 0h560v89H470z"/></g></svg>